<?xml version="1.0" encoding="UTF-8" standalone="no"?>
<svg
   xmlns:dc="http://purl.org/dc/elements/1.1/"
   xmlns:cc="http://creativecommons.org/ns#"
   xmlns:rdf="http://www.w3.org/1999/02/22-rdf-syntax-ns#"
   xmlns:svg="http://www.w3.org/2000/svg"
   xmlns="http://www.w3.org/2000/svg"
   xmlns:sodipodi="http://sodipodi.sourceforge.net/DTD/sodipodi-0.dtd"
   xmlns:inkscape="http://www.inkscape.org/namespaces/inkscape"
   width="370"
   height="270"
   viewBox="0 0 370 270"
   version="1.1"
   id="svg18"
   sodipodi:docname="mattermost-desktop-welcome.svg"
   inkscape:version="0.92.3 (2405546, 2018-03-11)">
  <metadata
     id="metadata22">
    <rdf:RDF>
      <cc:Work
         rdf:about="">
        <dc:format>image/svg+xml</dc:format>
        <dc:type
           rdf:resource="http://purl.org/dc/dcmitype/StillImage" />
        <dc:title>dark-color-logo</dc:title>
      </cc:Work>
    </rdf:RDF>
  </metadata>
  <sodipodi:namedview
     pagecolor="#ffffff"
     bordercolor="#666666"
     borderopacity="1"
     objecttolerance="10"
     gridtolerance="10"
     guidetolerance="10"
     inkscape:pageopacity="0"
     inkscape:pageshadow="2"
     inkscape:window-width="2328"
     inkscape:window-height="1219"
     id="namedview20"
     showgrid="false"
     inkscape:zoom="1.6666667"
     inkscape:cx="-12.299998"
     inkscape:cy="15"
     inkscape:window-x="-8"
     inkscape:window-y="-8"
     inkscape:window-maximized="1"
     inkscape:current-layer="layer2" />
  <!-- Generator: Sketch 49.3 (51167) - http://www.bohemiancoding.com/sketch -->
  <title
     id="title2">dark-color-logo</title>
  <desc
     id="desc4">Created with Sketch.</desc>
  <defs
     id="defs6" />
  <g
     inkscape:groupmode="layer"
     id="layer1"
     inkscape:label="back"
     transform="translate(0,-42)">
    <rect
       style="fill:#0058cc;fill-opacity:1;fill-rule:nonzero;stroke-width:1.73044264"
       id="rect838"
       width="370"
       height="270"
       x="0"
       y="42" />
  </g>
  <g
     inkscape:groupmode="layer"
     id="layer2"
     inkscape:label="front"
     transform="translate(0,-42)">
    <g
       id="Home"
       style="fill:none;fill-rule:evenodd;stroke:none;stroke-width:1"
       transform="matrix(0.75,0,0,0.75,117.60482,140.75)">
      <g
         transform="translate(-128,-33)"
         id="Header"
         style="fill:#ffffff">
        <g
           transform="translate(128,24)"
           id="g14">
          <g
             id="white-logo"
             transform="translate(0,9)">
            <g
               id="Shape">
              <path
                 d="m 68.885697,14.902406 c 0,-0.454397 -0.07531,-0.824128 -0.225764,-1.108649 -0.150089,-0.283794 -0.356934,-0.506905 -0.619995,-0.667515 -0.263061,-0.161338 -0.587382,-0.270531 -0.972424,-0.327035 -0.385402,-0.05687 -0.812966,-0.08521 -1.282872,-0.08521 -1.014767,0 -2.095118,0.198764 -3.241596,0.596657 -0.263241,-0.492733 -0.460356,-0.957123 -0.591706,-1.392806 -0.131531,-0.435683 -0.197657,-0.956759 -0.197657,-1.56341 0.827021,-0.284157 1.653681,-0.492551 2.480701,-0.6251819 0.82666,-0.1326309 1.597645,-0.1991281 2.311332,-0.1991281 1.954579,0 3.481413,0.473656 4.580864,1.421513 1.09927,0.947493 1.648995,2.46312 1.648995,4.547605 v 8.52726 c -0.657832,0.208394 -1.456564,0.407522 -2.396196,0.597021 -0.939272,0.189498 -2.001245,0.284339 -3.185199,0.284339 -0.958371,0 -1.837102,-0.08539 -2.635835,-0.255996 -0.798552,-0.170422 -1.484672,-0.454943 -2.05728,-0.852835 -0.573509,-0.39753 -1.014947,-0.90934 -1.325395,-1.534704 -0.309727,-0.625545 -0.464861,-1.392806 -0.464861,-2.302509 0,-0.909339 0.192611,-1.672058 0.577833,-2.287974 0.385222,-0.615734 0.883416,-1.108649 1.493862,-1.478017 0.610986,-0.36955 1.292062,-0.634812 2.043947,-0.795967 0.751706,-0.161156 1.503231,-0.241643 2.254937,-0.241643 0.54504,0 1.146297,0.02871 1.804309,0.08521 z m 0,2.927873 c -0.225764,-0.03797 -0.469906,-0.0714 -0.733327,-0.09956 -0.263061,-0.02834 -0.497473,-0.04252 -0.704499,-0.04252 -0.920893,0 -1.649176,0.165516 -2.184847,0.497275 -0.535491,0.331578 -0.803236,0.867007 -0.803236,1.605925 0,0.492914 0.103422,0.871548 0.310087,1.137174 0.206665,0.26508 0.455852,0.459302 0.747021,0.582304 0.291349,0.123365 0.601076,0.199128 0.930082,0.227653 0.329187,0.02816 0.615671,0.04288 0.859633,0.04288 0.28216,0 0.56414,-0.02398 0.845759,-0.0714 0.28216,-0.04742 0.526302,-0.08975 0.733327,-0.127907 z m 6.558505,-4.889175 h -1.832417 l -0.14126,-0.568496 5.271668,-6.7934289 h 0.648283 V 9.871152 h 3.410783 c 0.05604,0.284521 0.09387,0.540153 0.112972,0.767443 0.01838,0.227652 0.02775,0.464389 0.02775,0.710938 0,0.26508 -0.0094,0.520894 -0.02775,0.76726 -0.0191,0.246549 -0.05694,0.521258 -0.112972,0.824311 h -3.410783 v 5.770353 c 0,0.58721 0.04721,1.060866 0.14126,1.421149 0.09351,0.359557 0.229909,0.644078 0.408285,0.852654 0.178918,0.208394 0.399457,0.350472 0.662517,0.426235 0.263061,0.07613 0.573509,0.113918 0.930083,0.113918 0.28216,0 0.559095,-0.0238 0.831885,-0.07122 0.27225,-0.04724 0.511888,-0.08994 0.718553,-0.127726 0.131891,0.359557 0.225403,0.734013 0.281979,1.122639 0.05658,0.388445 0.0845,0.734558 0.0845,1.03761 0,0.208394 -0.0045,0.38354 -0.01405,0.5258 -0.0094,0.141897 -0.02324,0.279797 -0.04234,0.412064 -0.864317,0.208758 -1.756742,0.312501 -2.677636,0.312501 -1.710256,0 -3.016551,-0.402435 -3.918346,-1.207487 -0.901974,-0.805596 -1.352962,-2.118098 -1.352962,-3.93714 z m 10.57577,0 h -1.832057 l -0.14126,-0.568496 5.271488,-6.7934289 h 0.648283 V 9.871152 h 3.410783 c 0.05622,0.284521 0.09405,0.540153 0.112972,0.767443 0.01838,0.227652 0.02793,0.464389 0.02793,0.710938 0,0.26508 -0.0095,0.520894 -0.02793,0.76726 -0.01892,0.246549 -0.05676,0.521258 -0.112972,0.824311 h -3.410783 v 5.770353 c 0,0.58721 0.04739,1.060866 0.14108,1.421149 0.09405,0.359557 0.230268,0.644078 0.408645,0.852654 0.178737,0.208394 0.399096,0.350472 0.662517,0.426235 0.262881,0.07613 0.573329,0.113918 0.929903,0.113918 0.281979,0 0.559094,-0.0238 0.831885,-0.07122 0.27243,-0.04724 0.512067,-0.08994 0.718732,-0.127726 0.131531,0.359557 0.225404,0.734013 0.28162,1.122639 0.05676,0.388445 0.08486,0.734558 0.08486,1.03761 0,0.208394 -0.0047,0.38354 -0.01423,0.5258 -0.0092,0.141897 -0.02324,0.279797 -0.04216,0.412064 -0.864497,0.208758 -1.756742,0.312501 -2.677996,0.312501 -1.709896,0 -3.016192,-0.402435 -3.918166,-1.207487 -0.901975,-0.805596 -1.353142,-2.118098 -1.353142,-3.93714 z m 18.516428,2.700765 c -0.0375,-0.910066 -0.28667,-1.644078 -0.74702,-2.203127 -0.46036,-0.559048 -1.10396,-0.838845 -1.93098,-0.838845 -0.93963,0 -1.65368,0.265443 -2.142324,0.795967 -0.488465,0.530705 -0.779633,1.279253 -0.873506,2.246005 z m -5.722299,2.813592 c 0.07532,1.136992 0.469906,1.961303 1.183955,2.473113 0.714044,0.511628 1.653684,0.767442 2.819074,0.767442 0.63892,0 1.29152,-0.06177 1.9589,-0.185138 0.66721,-0.123002 1.30126,-0.298329 1.90287,-0.525618 0.20667,0.378997 0.38504,0.833758 0.53549,1.364463 0.15027,0.53016 0.23478,1.09902 0.2537,1.705307 -1.46594,0.568496 -3.1198,0.852835 -4.96159,0.852835 -1.35278,0 -2.512949,-0.189499 -3.481229,-0.568678 -0.96756,-0.378816 -1.756923,-0.904979 -2.367548,-1.577218 -0.610806,-0.672784 -1.061974,-1.473475 -1.353143,-2.402255 -0.291168,-0.928416 -0.436572,-1.942044 -0.436572,-3.040882 0,-1.080306 0.150088,-2.094115 0.450807,-3.041608 0.300358,-0.947857 0.74684,-1.771804 1.338908,-2.472749 0.591887,-0.701491 1.324673,-1.255633 2.19872,-1.663156 0.873867,-0.4073401 1.893317,-0.611192 3.058357,-0.611192 1.01476,0 1.91692,0.180051 2.7061,0.540153 0.78936,0.35992 1.46107,0.852835 2.01548,1.478381 0.55441,0.624818 0.97279,1.369005 1.25458,2.231106 0.28198,0.862101 0.42288,1.786157 0.42288,2.771259 0,0.360103 -0.014,0.715662 -0.0423,1.065953 -0.0281,0.350291 -0.0614,0.630088 -0.0986,0.838482 z M 109.84248,9.871152 c 0.2818,-0.056504 0.54955,-0.099382 0.80324,-0.1275437 0.25405,-0.028888 0.5308,-0.042878 0.8317,-0.042878 0.28198,0 0.55928,0.019259 0.83135,0.056686 0.27279,0.037973 0.54053,0.085574 0.80323,0.142442 0.0568,0.09484 0.10847,0.2320137 0.15532,0.4120647 0.047,0.180051 0.0892,0.369549 0.12684,0.568678 0.0377,0.198946 0.0703,0.397529 0.0986,0.596839 0.0283,0.199128 0.0515,0.36428 0.0706,0.497638 0.41333,-0.587755 0.92107,-1.113736 1.52215,-1.577763 0.60144,-0.4643898 1.35314,-0.6965848 2.25494,-0.6965848 0.18828,0 0.40432,0.00945 0.64846,0.028525 0.24414,0.018895 0.4227,0.047238 0.53549,0.085393 0.0377,0.1891358 0.066,0.4071588 0.0845,0.6535258 0.0193,0.246366 0.0285,0.502181 0.0285,0.767624 0,0.32213 -0.0144,0.672602 -0.0423,1.0516 -0.0283,0.378997 -0.08,0.738917 -0.15531,1.080124 -0.20667,-0.03815 -0.43676,-0.05687 -0.69027,-0.05687 -0.25369,0 -0.409,0 -0.46504,0 -0.31982,0 -0.67657,0.03325 -1.07152,0.09938 -0.39441,0.0665 -0.77027,0.241642 -1.12738,0.526163 -0.35729,0.284157 -0.65297,0.710575 -0.8881,1.279252 -0.23477,0.568133 -0.35261,1.3641 -0.35261,2.387539 v 6.992374 c -0.33784,0.05651 -0.67603,0.09448 -1.01459,0.113372 -0.33801,0.01908 -0.66684,0.02834 -0.98647,0.02834 -0.31964,0 -0.6436,-0.0093 -0.97261,-0.02834 -0.32883,-0.01889 -0.67171,-0.05687 -1.02864,-0.113372 z m 10.67126,0 c 0.26288,-0.056504 0.52613,-0.099382 0.78901,-0.1275437 0.26324,-0.028888 0.55441,-0.042878 0.87404,-0.042878 0.31946,0 0.60126,0.01399 0.84558,0.042878 0.24432,0.028161 0.49802,0.071039 0.76108,0.1275437 0.0562,0.09484 0.10828,0.232377 0.15513,0.412428 0.0468,0.179869 0.0894,0.369731 0.12685,0.568314 0.0376,0.199128 0.0703,0.393169 0.0985,0.582668 0.0286,0.189498 0.0519,0.350654 0.0706,0.483285 0.14991,-0.283976 0.34757,-0.568314 0.59207,-0.852835 0.24414,-0.283794 0.53531,-0.539426 0.87351,-0.767261 0.33819,-0.227471 0.71873,-0.4122458 1.14179,-0.5541427 0.4227,-0.142442 0.89747,-0.2134813 1.42359,-0.2134813 2.27368,0 3.73006,0.871912 4.36916,2.615373 0.37567,-0.701309 0.90665,-1.312138 1.59241,-1.833577 0.68613,-0.521258 1.55531,-0.781796 2.60791,-0.781796 1.6535,0 2.87025,0.4600295 3.65006,1.378998 0.78018,0.918787 1.17008,2.35429 1.17008,4.306326 v 9.351389 c -0.67639,0.113735 -1.34395,0.17024 -2.00142,0.17024 -0.65784,0 -1.32504,-0.0565 -2.00143,-0.17024 v -8.300152 c 0,-1.023257 -0.12702,-1.809413 -0.3809,-2.358832 -0.25333,-0.549601 -0.76539,-0.824492 -1.53584,-0.824492 -0.31982,0 -0.63423,0.0476 -0.94414,0.142079 -0.31044,0.09448 -0.59224,0.269804 -0.84575,0.525799 -0.2537,0.255814 -0.46036,0.616098 -0.62036,1.080306 -0.15982,0.463845 -0.23964,1.065953 -0.23964,1.804871 v 7.930421 c -0.67657,0.113735 -1.34377,0.17024 -2.00142,0.17024 -0.65765,0 -1.32504,-0.0565 -2.00161,-0.17024 v -8.300152 c 0,-1.023257 -0.12666,-1.809413 -0.38054,-2.358832 -0.25369,-0.549601 -0.76557,-0.824492 -1.53602,-0.824492 -0.31909,0 -0.63891,0.0476 -0.95855,0.142079 -0.31909,0.09448 -0.60594,0.279433 -0.85963,0.554324 -0.25387,0.274528 -0.45585,0.658249 -0.60594,1.151164 -0.15045,0.492551 -0.22577,1.136992 -0.22577,1.932778 v 7.703131 c -0.67657,0.113735 -1.34323,0.17024 -2.00124,0.17024 -0.65783,0 -1.32468,-0.0565 -2.00125,-0.17024 z m 29.29346,11.966761 c 1.05242,0 1.80881,-0.392987 2.26899,-1.179688 0.46053,-0.786157 0.6908,-1.918607 0.6908,-3.396442 0,-1.478199 -0.23027,-2.610286 -0.6908,-3.396805 -0.46018,-0.786701 -1.21657,-1.179689 -2.26899,-1.179689 -1.03351,0 -1.78053,0.392988 -2.24088,1.179689 -0.46072,0.786519 -0.69099,1.918606 -0.69099,3.396805 0,1.477835 0.23027,2.610285 0.69099,3.396442 0.46035,0.786701 1.20737,1.179688 2.24088,1.179688 z m 0,3.069952 c -1.18396,0 -2.21296,-0.194405 -3.08664,-0.58285 -0.87387,-0.388263 -1.59747,-0.928416 -2.17062,-1.620277 -0.57315,-0.69168 -1.00539,-1.501637 -1.29638,-2.430235 -0.29153,-0.928598 -0.43712,-1.932596 -0.43712,-3.01272 0,-1.080125 0.14559,-2.094115 0.43712,-3.041427 0.29099,-0.947493 0.72323,-1.76708 1.29638,-2.458759 0.57315,-0.691861 1.29675,-1.236011 2.17062,-1.634449 0.87368,-0.3978929 1.90268,-0.597021 3.08664,-0.597021 1.18395,0 2.21728,0.1991281 3.10069,0.597021 0.88306,0.398438 1.61585,0.942588 2.1989,1.634449 0.58252,0.691679 1.01459,1.511266 1.29675,2.458759 0.2818,0.947312 0.42252,1.961302 0.42252,3.041427 0,1.080124 -0.14072,2.084122 -0.42252,3.01272 -0.28216,0.928598 -0.71423,1.738555 -1.29675,2.430235 -0.58305,0.691861 -1.31584,1.232014 -2.1989,1.620277 -0.88341,0.388445 -1.91674,0.58285 -3.10069,0.58285 z m 12.15792,-6.736561 c -1.05261,-0.303416 -1.87476,-0.753271 -2.46647,-1.350292 -0.59207,-0.596657 -0.8881,-1.492188 -0.8881,-2.68623 0,-1.440227 0.51225,-2.567226 1.53656,-3.382089 1.02396,-0.8150439 2.41962,-1.222566 4.18591,-1.222566 0.73297,0 1.45621,0.066497 2.17044,0.1991281 0.71423,0.1326309 1.43764,0.3313959 2.17043,0.5970209 -0.0377,0.49237 -0.13153,1.003998 -0.28216,1.534885 -0.14991,0.530342 -0.32847,0.99455 -0.53513,1.392988 -0.45117,-0.18968 -0.949,-0.35556 -1.49422,-0.49782 -0.54468,-0.141897 -1.11801,-0.212936 -1.71927,-0.212936 -0.63909,0 -1.13675,0.09938 -1.49422,0.298328 -0.35693,0.199128 -0.53549,0.516534 -0.53549,0.952036 0,0.41697 0.12685,0.710756 0.38054,0.88136 0.25369,0.170421 0.61567,0.33194 1.08521,0.483103 l 1.60684,0.483649 c 0.5263,0.151344 1.00071,0.335938 1.42359,0.553961 0.4227,0.218023 0.78468,0.488009 1.08522,0.809957 0.30071,0.32213 0.53549,0.720204 0.70449,1.19386 0.16937,0.473838 0.25406,1.0516 0.25406,1.73365 0,0.70149 -0.14577,1.355197 -0.43712,1.961484 -0.29117,0.606468 -0.71423,1.132268 -1.26846,1.577399 -0.55441,0.445676 -1.22629,0.796149 -2.01566,1.051782 -0.789,0.255995 -1.68178,0.383903 -2.67781,0.383903 -0.45117,0 -0.86414,-0.01435 -1.23999,-0.0427 -0.37603,-0.02871 -0.73765,-0.07595 -1.0854,-0.142078 -0.34756,-0.0665 -0.69062,-0.146803 -1.02882,-0.241643 -0.33837,-0.09466 -0.70486,-0.217842 -1.09945,-0.36955 0.0378,-0.51181 0.12703,-1.028162 0.26775,-1.549056 0.1409,-0.520894 0.32432,-1.028162 0.54972,-1.520895 0.62018,0.246548 1.20756,0.431141 1.76197,0.554324 0.55441,0.123365 1.13224,0.185139 1.73332,0.185139 0.26342,0 0.5499,-0.02398 0.85963,-0.0714 0.31027,-0.04742 0.59693,-0.132631 0.85999,-0.255814 0.26325,-0.123184 0.48415,-0.284339 0.66252,-0.483104 0.17856,-0.198946 0.26739,-0.459484 0.26739,-0.781977 0,-0.454397 -0.13604,-0.781433 -0.40847,-0.980379 -0.27261,-0.198765 -0.65315,-0.374637 -1.14143,-0.525981 z m 9.74983,-5.2302 h -1.83188 l -0.14144,-0.568496 5.27131,-6.7934289 h 0.64828 V 9.871152 h 3.41096 c 0.0564,0.284521 0.0939,0.540153 0.11298,0.767443 0.0186,0.227652 0.0281,0.464389 0.0281,0.710938 0,0.26508 -0.01,0.520894 -0.0281,0.76726 -0.0191,0.246549 -0.0566,0.521258 -0.11298,0.824311 h -3.41096 v 5.770353 c 0,0.58721 0.0474,1.060866 0.14108,1.421149 0.0942,0.359557 0.23027,0.644078 0.40865,0.852654 0.17891,0.208394 0.39963,0.350472 0.66251,0.426235 0.26288,0.07613 0.57351,0.113918 0.93027,0.113918 0.28198,0 0.55891,-0.0238 0.8317,-0.07122 0.27225,-0.04724 0.51189,-0.08994 0.71855,-0.127726 0.13171,0.359557 0.22577,0.734013 0.2818,1.122639 0.0568,0.388445 0.0847,0.734558 0.0847,1.03761 0,0.208394 -0.005,0.38354 -0.0141,0.5258 -0.009,0.141897 -0.0232,0.279797 -0.0423,0.412064 -0.86414,0.208758 -1.75674,0.312501 -2.67764,0.312501 -1.71025,0 -3.01637,-0.402435 -3.91852,-1.207487 -0.9018,-0.805596 -1.35296,-2.118098 -1.35296,-3.93714 z M 38.83297,5.3716935 C 39.647558,5.2574128 40.431155,5.2 41.184302,5.2 c 0.794048,0 1.578005,0.057413 2.351512,0.1716935 L 48.574512,15.917305 53.765821,5.3716935 C 54.396987,5.2574128 55.098963,5.2 55.872831,5.2 c 0.773687,0 1.516384,0.057413 2.229171,0.1716935 l 1.038189,19.3646595 c -0.773327,0.114462 -1.506294,0.171512 -2.19836,0.171512 -0.692607,0 -1.374223,-0.05705 -2.045929,-0.171512 l -0.549906,-14.00092 -4.458522,9.676788 c -0.285223,0.03815 -0.580175,0.07195 -0.885758,0.10011 -0.305403,0.02871 -0.610446,0.04288 -0.916029,0.04288 -0.264863,0 -0.529185,-0.0094 -0.793687,-0.02852 -0.264683,-0.01908 -0.539455,-0.05741 -0.824678,-0.114463 L 42.314383,10.534859 41.886819,24.73636 c -0.651346,0.114462 -1.282512,0.171512 -1.893498,0.171512 -0.651526,0 -1.323593,-0.05705 -2.015299,-0.171512 z"
                 id="path8"
                 inkscape:connector-curvature="0" />
              <path
                 d="m 19.915976,12.257482 c 0,0 0.04605,2.046933 -1.357796,3.437547 -1.40403,1.390614 -3.128455,1.263514 -4.250198,0.879474 -1.121924,-0.38404 -2.568036,-1.342221 -2.847975,-3.308986 -0.279759,-1.966947 0.986469,-3.564829 0.986469,-3.564829 l 2.759297,-3.4695043 1.607032,-1.9815564 1.379468,-1.7268084 c 0,0 0.633024,-0.8573779 0.813449,-1.034332 0.03576,-0.035062 0.07242,-0.058072 0.108364,-0.075785 l 0.02619,-0.013513 0.0047,-0.00183 c 0.07586,-0.033053 0.163268,-0.040175 0.247611,-0.011322 0.08254,0.028305 0.146471,0.085646 0.186927,0.1563185 l 0.0085,0.013696 0.0074,0.015705 c 0.01969,0.037619 0.03612,0.080533 0.04389,0.1334917 0.03684,0.251461 0.02474,1.3214028 0.02474,1.3214028 l 0.05833,2.2187735 0.08615,2.5611768 z M 23.487783,2.8630077 C 28.591112,6.6184873 30.931601,13.433866 28.803458,19.808228 26.184163,27.653008 17.78866,31.859729 10.051628,29.20414 2.3145958,26.548369 -1.8341666,18.036131 0.78494789,10.191352 2.9166932,3.80658 8.8746294,-0.16785508 15.189718,0.00544665 L 13.165496,2.4303926 C 9.4190926,3.117208 6.1843726,5.7112555 4.912998,9.5193282 3.0213353,15.184962 6.1919371,21.392597 11.994801,23.384197 17.797485,25.37598 24.035128,22.39771 25.92679,16.732077 27.194023,12.936605 26.189206,8.8982542 23.643575,6.0467194 Z"
                 id="path10"
                 inkscape:connector-curvature="0" />
            </g>
          </g>
        </g>
      </g>
    </g>
  </g>
</svg>
